<svg xmlns="http://www.w3.org/2000/svg" viewBox="0 0 249.22 108.57">
                        <title>fs-logo</title>
                        <g id="logo-text">
                            <path fill="#fff" class="logo-text" d="M3.88,95.17V74.24H0v-7H3.88V64.74a16.65,16.65,0,0,1,.76-5.16,11.39,11.39,0,0,1,2.14-3.94,9.26,9.26,0,0,1,3.37-2.5,10.61,10.61,0,0,1,4.34-.87,20.4,20.4,0,0,1,8,1.8l-1.69,7a11.2,11.2,0,0,0-2.05-.67,9.73,9.73,0,0,0-2.12-.26q-3.42,0-3.42,4.29v2.84h7.07v7H13.16V95.17Z"></path>
                            <path fill="#fff" class="logo-text" d="M43.54,72.68a18,18,0,0,0-6.09,1.1,7.42,7.42,0,0,0-3.94,3.13V95.17H24.23V64.74h8.52v6.14a13,13,0,0,1,4-4.81A9.34,9.34,0,0,1,42,64.27H43a2.93,2.93,0,0,1,.58.06Z"></path>
                            <path fill="#fff" class="logo-text" d="M60.47,95.75a18,18,0,0,1-6.87-1.24,15.24,15.24,0,0,1-5.16-3.39,14.54,14.54,0,0,1-3.22-5,15.92,15.92,0,0,1-1.1-5.89A17.42,17.42,0,0,1,45.22,74a15.1,15.1,0,0,1,3.19-5.13,14.84,14.84,0,0,1,5.13-3.48,17.8,17.8,0,0,1,6.93-1.27,17.58,17.58,0,0,1,6.9,1.27,15.22,15.22,0,0,1,5.1,3.45,14.69,14.69,0,0,1,3.16,5,16.84,16.84,0,0,1,1.07,6q0,.81-.06,1.59a13.22,13.22,0,0,1-.17,1.36H54a6.26,6.26,0,0,0,2.24,4.67,7.06,7.06,0,0,0,4.55,1.6,8.32,8.32,0,0,0,3.91-1,5,5,0,0,0,2.52-2.67l7.89,2.21a14.27,14.27,0,0,1-5.57,5.85A17.23,17.23,0,0,1,60.47,95.75ZM66.9,77.09a6.93,6.93,0,0,0-2.09-4.58,6.74,6.74,0,0,0-9,0,7.08,7.08,0,0,0-2.06,4.56Z"></path>
                            <path fill="#fff" class="logo-text" d="M95.48,95.75a18,18,0,0,1-6.87-1.24,15.24,15.24,0,0,1-5.16-3.39,14.69,14.69,0,0,1-3.22-5,16.12,16.12,0,0,1-1.1-5.89A17.64,17.64,0,0,1,80.23,74a15.25,15.25,0,0,1,3.19-5.13,14.84,14.84,0,0,1,5.13-3.48,17.8,17.8,0,0,1,6.93-1.27,17.58,17.58,0,0,1,6.9,1.27,15.12,15.12,0,0,1,5.1,3.45,14.54,14.54,0,0,1,3.16,5,16.62,16.62,0,0,1,1.07,6c0,.54,0,1.07,0,1.59a10.77,10.77,0,0,1-.18,1.36H89a6.25,6.25,0,0,0,2.23,4.67,7.06,7.06,0,0,0,4.55,1.6,8.35,8.35,0,0,0,3.92-1,5.09,5.09,0,0,0,2.52-2.67l7.88,2.21a14.24,14.24,0,0,1-5.56,5.85A17.27,17.27,0,0,1,95.48,95.75Zm6.44-18.66a7,7,0,0,0-2.09-4.58,6.75,6.75,0,0,0-9,0,7.08,7.08,0,0,0-2.05,4.56Z"></path>
                            <path fill="#fff" class="logo-text" d="M128,95.75a24.32,24.32,0,0,1-7.66-1.24,17.38,17.38,0,0,1-6.37-3.63l3.3-5.68a27.6,27.6,0,0,0,5.42,3,13.88,13.88,0,0,0,5.07,1,5.1,5.1,0,0,0,2.79-.64,2.07,2.07,0,0,0,1-1.85,2.17,2.17,0,0,0-1.24-1.94,18.9,18.9,0,0,0-4.38-1.54q-3.08-.87-5.19-1.68a14.53,14.53,0,0,1-3.45-1.8,5.71,5.71,0,0,1-1.91-2.26,7.15,7.15,0,0,1-.58-3,9.59,9.59,0,0,1,.93-4.24A9.37,9.37,0,0,1,118.21,67a12,12,0,0,1,3.85-2.09,15.11,15.11,0,0,1,4.84-.75,21.78,21.78,0,0,1,6.41.92,16,16,0,0,1,5.77,3.37L135.48,74a25.58,25.58,0,0,0-4.63-2.61,10.65,10.65,0,0,0-3.95-.81,5.06,5.06,0,0,0-2.55.61,2.26,2.26,0,0,0,.09,3.86,18.8,18.8,0,0,0,4.2,1.39,53.2,53.2,0,0,1,5.48,1.74,14.3,14.3,0,0,1,3.62,1.94,6.52,6.52,0,0,1,2,2.46,7.82,7.82,0,0,1,.64,3.31,8.71,8.71,0,0,1-3.36,7.19C134.81,94.86,131.77,95.75,128,95.75Z"></path>
                            <path fill="#fff" class="logo-text" d="M164.59,93.55a38.92,38.92,0,0,1-4.38,1.51,18.32,18.32,0,0,1-5,.69,11.91,11.91,0,0,1-3.27-.43,7.37,7.37,0,0,1-2.7-1.39,6.59,6.59,0,0,1-1.83-2.53,9.62,9.62,0,0,1-.66-3.76V71.75H142.9v-7h3.89V55.06h9.27v9.68h6.21v7h-6.21v12.7a2.49,2.49,0,0,0,2.67,2.84,7.21,7.21,0,0,0,2.15-.35,13.13,13.13,0,0,0,1.91-.75Z"></path>
                            <path fill="#fff" class="logo-text" d="M168.41,99.75a12.9,12.9,0,0,0,2.18.58,10.44,10.44,0,0,0,1.82.18A3.17,3.17,0,0,0,175,99.35a11.59,11.59,0,0,0,1.68-4.18L165.11,64.74h9.56l7.08,22.49,6.08-22.49h8.7l-11.6,35.36a12,12,0,0,1-11.76,8.47,13.42,13.42,0,0,1-2.35-.21,12.93,12.93,0,0,1-2.41-.66Z"></path>
                            <path fill="#fff" class="logo-text" d="M198.9,52.85h9.28V84.33q0,3.48,3,3.48a6.85,6.85,0,0,0,1.53-.2,5.83,5.83,0,0,0,1.54-.61l1.22,7a18.25,18.25,0,0,1-4,1.27,21.1,21.1,0,0,1-4.24.46,8.46,8.46,0,0,1-6.14-2.08,8,8,0,0,1-2.15-6Z"></path>
                            <path fill="#fff" class="logo-text" d="M233,95.75a18,18,0,0,1-6.87-1.24A15.24,15.24,0,0,1,221,91.12a14.52,14.52,0,0,1-3.21-5,15.93,15.93,0,0,1-1.11-5.89A17.42,17.42,0,0,1,217.75,74a14.68,14.68,0,0,1,8.31-8.61A17.8,17.8,0,0,1,233,64.16a17.58,17.58,0,0,1,6.9,1.27,15.12,15.12,0,0,1,5.1,3.45,14.54,14.54,0,0,1,3.16,5,16.62,16.62,0,0,1,1.07,6c0,.54,0,1.07-.05,1.59a10.77,10.77,0,0,1-.18,1.36H226.5a6.25,6.25,0,0,0,2.23,4.67,7.06,7.06,0,0,0,4.55,1.6,8.35,8.35,0,0,0,3.92-1,5.09,5.09,0,0,0,2.52-2.67l7.88,2.21A14.24,14.24,0,0,1,242,93.49,17.27,17.27,0,0,1,233,95.75Zm6.44-18.66a7,7,0,0,0-2.09-4.58,6.75,6.75,0,0,0-9,0,7.08,7.08,0,0,0-2,4.56Z"></path>
                        </g>
                        <g id="logo-icon">
                            <path 
                            fill="#e7365f"
                            class="logo-icon" d="M129.4,21.06h-.13l-9.92,0a15.87,15.87,0,0,0,.58,31.72c.15,0,.29,0,.43,0a8.18,8.18,0,0,1-.09-16.33h9.13a7.71,7.71,0,0,0,0-15.41ZM136.76,0H120.84a27,27,0,0,0-14,49.87,20.17,20.17,0,0,1,14.35-34.46H136.6A7.71,7.71,0,0,0,136.76,0Z"></path>
                        </g>
                    </svg>