<svg version="1.1" id="Layer_1" xmlns="http://www.w3.org/2000/svg" xmlns:xlink="http://www.w3.org/1999/xlink" x="0px" y="0px"
	 viewBox="0 0 581 266.5" style="enable-background:new 0 0 581 266.5;" xml:space="preserve">
<style type="text/css">
	.st0{fill:#ffffff;}
</style>
<g id="Layer_2">
	<g>
		<g>
			<path class="st0" d="M184,109.9V93.7c-4.9-2.7-10.3-4-16.7-4c-20.8,0-34.8,13.6-34.8,33.8c0,20,13.7,33.8,33.4,33.8
				c6.9,0,12.9-1.5,18.1-4.5v-16.5c-4.3,5.3-9.6,7.9-16.5,7.9c-12.5,0-20.1-7.9-20.1-21.1c0-12.7,7.7-20.8,19.3-20.8
				C173.6,102.4,179.6,105.1,184,109.9"/>
			<path class="st0" d="M128.4,155.5L91,54.6l-21.7,55.1c-1.7,4.5-3.2,9.1-4.7,13.9c-1.2-4.3-2.8-8.8-4.8-13.6L37.6,54.6L0,155.5
				h15.7l18.1-49.4c2-5.6,3.6-10.4,4.8-15.1c1.6,5.7,3.3,10.8,5.2,15.5l20.5,52.8l19.6-51.9c0.5-1.6,2.4-6.9,5.3-16.3
				c1.5,5.2,3.2,10.1,5.2,15.3l18.3,49H128.4z"/>
			<path class="st0" d="M494.5,154.8H509V87.3c2.7,3.7,5.9,7.5,9.3,10.8l62.8,60.4V57.7h-14.5v67.4c-3.2-4.1-6.7-8-10.5-11.7
				L494.5,54V154.8z"/>
			<path class="st0" d="M388,154.8h14.5V87.3c2.7,3.7,5.9,7.5,9.3,10.8l62.8,60.4V57.7h-14.5v67.4c-3.2-4.1-6.7-8-10.5-11.7L388,54
				V154.8z"/>
			<path class="st0" d="M278.7,81.3l0.8-15.9c-9.5-6.7-19.7-10-31.4-10c-14.5,0-27.1,5.1-36.8,14.5c-9.6,9.5-14.8,22.3-14.8,36.6
				c0,14.1,5.2,27.1,14.7,36.6c9.5,9.3,22.3,14.4,37.2,14.4c11.6,0,21.6-2.9,30.2-9.1v-17.7c-9.5,8.1-19.9,12.3-31.4,12.3
				c-19.3,0-34.2-14.8-34.2-36.2c0-21.6,14.5-36.7,35.9-36.7C259.8,70,269.7,73.7,278.7,81.3"/>
			<path class="st0" d="M318.8,116.7l9.9-22.1c1.1-2.5,2.3-6.1,3.5-10.9c1.3,4.9,2.5,8.4,3.6,10.9l9.9,22.1H318.8z M332,54
				l-47,100.9h16.5l11.2-25h38.4l10.9,25h16.7L332,54z"/>
		</g>
	</g>
	<g>
		<g>
			<path class="st0" d="M190.1,185.9c-6.9,0-11.6,4.9-11.6,11.9c0,6.9,4.8,11.7,11.1,11.7c3.7,0,7.1-1.3,10.1-4v5.7
				c-2.8,2-6,2.9-9.7,2.9c-4.8,0-8.9-1.6-12.1-4.7c-3.1-3.1-4.8-7.3-4.8-11.9c0-4.7,1.7-8.8,4.8-11.9c3.1-3.1,7.2-4.7,12-4.7
				c3.7,0,7.1,1.1,10.1,3.2l-0.3,5.2C196.9,187.1,193.7,185.9,190.1,185.9z"/>
			<path class="st0" d="M215.2,181.9h17.6v4.4h-12.4v7.9h12.4v4.5h-12.4v10.1h12.4v4.5h-17.6V181.9z"/>
			<path class="st0" d="M247.6,180.7l20,19.2c1.3,1.2,2.4,2.5,3.5,3.9v-21.9h4.7v32.7L255.4,195c-1.2-1.1-2.1-2.3-3.1-3.5v21.9h-4.7
				L247.6,180.7L247.6,180.7z"/>
			<path class="st0" d="M302.2,213.4h-5.1v-27.1h-8.4v-4.4h21.9v4.4h-8.3v27.1H302.2z"/>
			<path class="st0" d="M328.2,213.4h-4.8v-31.5h7.2c3.3,0,5.9,0.3,7.9,1.7c1.9,1.5,3.1,4,3.1,6.9c0,5.1-2.4,7.9-7.2,8.5l10.8,14.3
				h-5.7l-10.5-14.1h-0.5v14.1H328.2z M329.6,195.4c4.5,0,6.8-0.5,6.8-4.3c0-3.9-2.1-4.7-6.8-4.7h-0.9v9.1h0.9V195.4z"/>
			<path class="st0" d="M374.4,205.3H362l-3.6,8.1H353l15.2-32.7l15.2,32.7H378L374.4,205.3z M372.5,201l-3.2-7.2
				c-0.4-0.8-0.8-2-1.2-3.6c-0.4,1.6-0.8,2.7-1.2,3.6l-3.2,7.2H372.5z"/>
			<path class="st0" d="M395.3,181.9h5.1v27h11.5v4.5h-16.5V181.9z"/>
		</g>
	</g>
</g>
<g id="guides">
</g>
</svg>
