<?xml version="1.0" encoding="UTF-8" standalone="no"?>
<svg
   xmlns:dc="http://purl.org/dc/elements/1.1/"
   xmlns:cc="http://creativecommons.org/ns#"
   xmlns:rdf="http://www.w3.org/1999/02/22-rdf-syntax-ns#"
   xmlns:svg="http://www.w3.org/2000/svg"
   xmlns="http://www.w3.org/2000/svg"
   xmlns:sodipodi="http://sodipodi.sourceforge.net/DTD/sodipodi-0.dtd"
   xmlns:inkscape="http://www.inkscape.org/namespaces/inkscape"
   width="1556.3496"
   height="2180.1475"
   viewBox="0 0 335.29 469.67614"
   version="1.1"
   id="svg925"
   sodipodi:docname="css3.svg"
   inkscape:version="1.0 (4035a4fb49, 2020-05-01)">
  <metadata
     id="metadata931">
    <rdf:RDF>
      <cc:Work
         rdf:about="">
        <dc:format>image/svg+xml</dc:format>
        <dc:type
           rdf:resource="http://purl.org/dc/dcmitype/StillImage" />
        <dc:title></dc:title>
      </cc:Work>
    </rdf:RDF>
  </metadata>
  <defs
     id="defs929" />
  <sodipodi:namedview
     inkscape:document-rotation="0"
     pagecolor="#ffffff"
     bordercolor="#666666"
     borderopacity="1"
     objecttolerance="10"
     gridtolerance="10"
     guidetolerance="10"
     inkscape:pageopacity="0"
     inkscape:pageshadow="2"
     inkscape:window-width="1920"
     inkscape:window-height="986"
     id="namedview927"
     showgrid="false"
     fit-margin-top="0"
     fit-margin-left="0"
     fit-margin-right="0"
     fit-margin-bottom="0"
     inkscape:zoom="0.3064"
     inkscape:cx="778.17945"
     inkscape:cy="1075.387"
     inkscape:window-x="1909"
     inkscape:window-y="-11"
     inkscape:window-maximized="1"
     inkscape:current-layer="svg925" />
  <path
     d="M -101.646,-34.453501 H 436.938 V 504.1295 h -538.584 z"
     fill="none"
     id="path883" />
  <path
     d="M 303.854,433.0005 167.644,469.6765 31.432,433.0005 0,92.4755 h 335.29 z"
     fill="#2062af"
     id="path885" />
  <path
     d="m 167.643,120.0575 v 320.367 l 0.308,0.084 110.229,-29.682 25.443,-290.769 z"
     fill="#3c9cd7"
     id="path887" />
  <path
     d="M 90.339,42.4455 V 22.1775 H 119.91 V -5.0033711e-4 H 68.161 V 62.6835 h 51.749 v -20.238 z m 82.766,-20.268 h 20.674 V -5.0033711e-4 H 142.025 V 22.1775 c 6.924,6.924 10.535,10.238 20.549,20.252 -5.854,0 -20.549,0.021 -20.549,0.02 v 20.234 h 51.754 v -20.238 z m 73.352,0 H 267.13 V -5.0033711e-4 H 215.374 V 22.1775 c 6.924,6.924 10.537,10.238 20.551,20.252 -5.852,0 -20.551,0.021 -20.551,0.02 v 20.234 h 51.757 v -20.238 z"
     id="path889" />
  <path
     d="m 167.522,205.2025 -97.49,40.602 3.233,40.199 94.257,-40.301 100.265,-42.868 4.157,-41.122 z"
     fill="#ffffff"
     id="path891" />
  <linearGradient
     id="a"
     gradientUnits="userSpaceOnUse"
     x1="-825.508"
     y1="1338.301"
     x2="-825.508"
     y2="1419.1021"
     gradientTransform="matrix(1,0,0,-1,944.284,1624.3055)">
    <stop
       offset=".387"
       stop-color="#d1d3d4"
       stop-opacity="0"
       id="stop893" />
    <stop
       offset="1"
       stop-color="#d1d3d4"
       id="stop895" />
  </linearGradient>
  <path
     d="m 70.031,245.8045 3.233,40.199 94.257,-40.301 v -40.5 z"
     fill="url(#a)"
     id="path898"
     style="fill:url(#a)" />
  <linearGradient
     id="b"
     gradientUnits="userSpaceOnUse"
     x1="-724.552"
     y1="1378.6021"
     x2="-724.552"
     y2="1462.5909"
     gradientTransform="matrix(1,0,0,-1,944.284,1624.3055)">
    <stop
       offset=".387"
       stop-color="#d1d3d4"
       stop-opacity="0"
       id="stop900" />
    <stop
       offset="1"
       stop-color="#d1d3d4"
       id="stop902" />
  </linearGradient>
  <path
     d="m 271.944,161.7135 -104.422,43.489 v 40.5 l 100.265,-42.868 z"
     fill="url(#b)"
     id="path905"
     style="fill:url(#b)" />
  <linearGradient
     id="c"
     gradientUnits="userSpaceOnUse"
     x1="-874.10303"
     y1="1302.2629"
     x2="-680.039"
     y2="1302.2629"
     gradientTransform="matrix(1,0,0,-1,944.284,1624.3055)">
    <stop
       offset="0"
       stop-color="#e8e7e5"
       id="stop907" />
    <stop
       offset="1"
       stop-color="#fff"
       id="stop909" />
  </linearGradient>
  <path
     d="m 70.181,245.8045 3.234,40.199 144.625,0.461 -3.235,53.598 -47.59,13.398 -45.748,-11.551 -2.772,-33.268 H 76.187 l 5.545,64.225 85.945,25.412 85.479,-24.951 11.09,-127.523 z"
     fill="url(#c)"
     id="path912"
     style="fill:url(#c)" />
  <path
     d="m 167.522,245.8045 h -97.49 l 3.233,40.199 94.257,0.301 z m 0,107.528 -0.462,0.129 -45.742,-11.551 -2.772,-33.268 H 76.039 l 5.544,64.225 85.939,25.412 z"
     opacity="0.05"
     id="path914" />
  <linearGradient
     id="d"
     gradientUnits="userSpaceOnUse"
     x1="-883.03198"
     y1="1442.031"
     x2="-672.341"
     y2="1442.031"
     gradientTransform="matrix(1,0,0,-1,944.284,1624.3055)">
    <stop
       offset="0"
       stop-color="#e8e7e5"
       id="stop916" />
    <stop
       offset="1"
       stop-color="#fff"
       id="stop918" />
  </linearGradient>
  <path
     d="m 61.252,161.7135 h 210.692 l -4.157,41.122 H 66.334 Z"
     fill="url(#d)"
     id="path921"
     style="fill:url(#d)" />
  <path
     d="M 167.522,161.7135 H 61.252 l 5.082,41.122 h 101.188 z"
     opacity="0.05"
     id="path923" />
</svg>
